<svg xmlns="http://www.w3.org/2000/svg" viewBox="0 0 185.84 43.56">
    <defs>
        <style>
            .cls-1 {
                fill:#000; 
            }
        </style>
    </defs>
    <g id="Layer_2" data-name="Layer 2">
        <g id="Layer_1-2" data-name="Layer 1">
            <path class="cls-1" d="M4.33,40.57A6.38,6.38,0,0,1,2,40.27,1.88,1.88,0,0,1,.68,38.84a64.77,64.77,0,0,1-.59-8q-.15-5.41,0-11.65T.6,7.85A26,26,0,0,1,1.91.77,1.7,1.7,0,0,1,3.14.14,7.71,7.71,0,0,1,5.26.07,8.78,8.78,0,0,1,7.35.49l.5.17L8.3.82a.48.48,0,0,0,.25,0A1.24,1.24,0,0,0,8.83.77,7,7,0,0,1,9.92.38,11.22,11.22,0,0,1,13.61,0,10,10,0,0,1,17,.87a9.67,9.67,0,0,1,3.87,3,9,9,0,0,1,1.62,4,14,14,0,0,1-.14,4.59,22,22,0,0,1-1.45,4.61v0a2.8,2.8,0,0,0-.21.58.43.43,0,0,0,.21.41,11.39,11.39,0,0,1,3.66,5A12,12,0,0,1,25.06,29a13.74,13.74,0,0,1-6.44,9.69,12.88,12.88,0,0,1-6.06,1.85,15.15,15.15,0,0,1-4.85-.57l-.37-.08a.35.35,0,0,0-.21,0L7,39.93a2.2,2.2,0,0,1-.53.25A6.45,6.45,0,0,1,4.33,40.57ZM11,23.76a4.58,4.58,0,0,0-2.71,1.83,4.86,4.86,0,0,0-.9,3,3.79,3.79,0,0,0,1.22,2.71,4.73,4.73,0,0,0,3.55,1,5.68,5.68,0,0,0,2.21-.56A4.1,4.1,0,0,0,16,30.3a4.89,4.89,0,0,0,.88-3.71,3.63,3.63,0,0,0-2-2.49A5.76,5.76,0,0,0,11,23.76ZM9.5,9.84a3.76,3.76,0,0,0-.77,2.79A2.21,2.21,0,0,0,10,14.2a3.42,3.42,0,0,0,2.24.16,3.35,3.35,0,0,0,2-1.46,3.39,3.39,0,0,0,.58-2.52,2.84,2.84,0,0,0-1.16-1.75,2.63,2.63,0,0,0-2.06-.39A3.49,3.49,0,0,0,9.5,9.84Z" />
            <path class="cls-1" d="M27.39,18.38c.14-.21.58-.33,1.3-.37a18,18,0,0,1,2.47.09,12.61,12.61,0,0,1,2.37.46c.67.21,1,.46,1,.74-.12,1.52-.25,3.52-.37,6S34,30.34,34,33s0,4.89.21,6.81c0,.19-.29.35-.88.49a11,11,0,0,1-2.11.25A9.93,9.93,0,0,1,29,40.32a1.77,1.77,0,0,1-1.32-.77,20.29,20.29,0,0,1-.77-4.43q-.29-3-.34-6.44t.16-6.29A14.42,14.42,0,0,1,27.39,18.38Zm7.42-2.49c-.05.3-.38.5-1,.59a9.13,9.13,0,0,1-2.18,0,20.1,20.1,0,0,1-2.21-.3,2.44,2.44,0,0,1-1.16-.4,7.48,7.48,0,0,1-.58-3,22.26,22.26,0,0,1,.19-4.06,8.8,8.8,0,0,1,.91-3.14c.19-.26.67-.42,1.45-.48a12.46,12.46,0,0,1,2.55.09,11.29,11.29,0,0,1,2.37.53c.65.23,1,.51.95.84s-.1.56-.14.84c-.24,1.39-.46,2.8-.67,4.24S34.9,14.55,34.81,15.89Z" />
            <path class="cls-1" d="M43.85,14.73a2.44,2.44,0,0,1,1.07-.34c.6-.1,1.27-.18,2-.23a16.3,16.3,0,0,1,2,0c.56,0,.85.12.88.26-.07,1.29-.11,3-.11,5.19a32.39,32.39,0,0,0,.42,5.6c0,.1-.23.21-.7.35a11.13,11.13,0,0,1-1.72.36,11.26,11.26,0,0,1-1.85.17c-.57,0-.94-.09-1.1-.28a5.92,5.92,0,0,1-.64-1.69c-.26,2.72-.45,5.48-.59,8.26s-.18,5.22-.11,7.28c0,.24-.33.43-.93.58a9.92,9.92,0,0,1-2.16.27A9.31,9.31,0,0,1,38,40.3a1.6,1.6,0,0,1-1.3-.89,25.32,25.32,0,0,1-.54-5q-.14-3.4,0-7.33t.49-7.18a17.43,17.43,0,0,1,.93-4.53c.14-.23.56-.38,1.26-.44a12.89,12.89,0,0,1,2.38.05,13.65,13.65,0,0,1,2.37.46A3,3,0,0,1,43.85,14.73Z" />
            <path class="cls-1" d="M53.27,3.34q.24-.57,1.41-.69a9.29,9.29,0,0,1,2.58.14,8.27,8.27,0,0,1,2.46.83c.69.37,1,.82,1,1.33-.19,2.28-.4,5.19-.63,8.76a11.54,11.54,0,0,0-.07,1.6c0,.31.11.48.26.51a2.09,2.09,0,0,0,.76-.14l.49-.15a9,9,0,0,1,6,.37,9.53,9.53,0,0,1,4.24,3.82,12,12,0,0,1,1.68,5.94,13.95,13.95,0,0,1-3.37,9.6,12.69,12.69,0,0,1-4.92,3.44,8.91,8.91,0,0,1-2.76.58,11.53,11.53,0,0,1-1.88-.08,2.41,2.41,0,0,0-1-.06q-.37.09-.51.69a9.23,9.23,0,0,0-.11,2q0,.53-1,.9a7.41,7.41,0,0,1-2.24.44,5.91,5.91,0,0,1-2.33-.32A1.92,1.92,0,0,1,52,41.41a60.39,60.39,0,0,1-.51-7.95c-.06-3.58,0-7.44.1-11.58S52,14,52.25,10.54A41.75,41.75,0,0,1,53.27,3.34Zm12,23a1.89,1.89,0,0,0-1-1.79,2.55,2.55,0,0,0-2.06,0,4.42,4.42,0,0,0-2,1.75,5.87,5.87,0,0,0-.84,3.28,1.77,1.77,0,0,0,1,1.71,2.59,2.59,0,0,0,2-.21,5.16,5.16,0,0,0,2.83-4.77Z" />
            <path class="cls-1" d="M100.06,40.57a6.44,6.44,0,0,1-2.35-.3,1.81,1.81,0,0,1-1.3-1.43,57,57,0,0,1-.51-7.94c-.06-3.59,0-7.45.1-11.6s.34-7.93.62-11.34a41.76,41.76,0,0,1,1-7.19c.16-.38.63-.6,1.4-.69a9.35,9.35,0,0,1,2.59.14,8.56,8.56,0,0,1,2.46.83c.69.38,1,.82,1,1.34q-.5,5.94-1.13,15.92v.25a1.33,1.33,0,0,0,.06.91q.15.21.93.18,2.39,0,4.74,0h.43a.55.55,0,0,0,.24,0s.08-.05.11-.12a1.44,1.44,0,0,0,0-.35v-.14c.12-4.11.32-7.84.6-11.22a40.67,40.67,0,0,1,1-7.1c.16-.38.63-.6,1.41-.69a9.29,9.29,0,0,1,2.58.14,8.56,8.56,0,0,1,2.46.83c.69.38,1,.82,1,1.34-.21,2.76-.47,6.38-.79,10.84S118.2,22.28,118,27s-.29,8.79-.24,12.29c0,.35-.35.65-1,.89a6.62,6.62,0,0,1-2.23.41,6.49,6.49,0,0,1-2.36-.3,1.81,1.81,0,0,1-1.3-1.43,87.65,87.65,0,0,1-.53-12.06v0q0-.55-.09-.69a1.15,1.15,0,0,0-.68-.12h-.07c-1.13,0-2.3-.06-3.52-.1l-1.61-.07h-.07c-.38,0-.61,0-.69.08s-.11.31-.09.69a.33.33,0,0,0,0,.1c-.21,4.86-.3,9.06-.25,12.63,0,.35-.34.65-1,.89A6.57,6.57,0,0,1,100.06,40.57Z" />
            <path class="cls-1" d="M132.93,14.52c.14-.29.59-.46,1.34-.51a11.49,11.49,0,0,1,2.51.1,9.49,9.49,0,0,1,2.41.63c.68.3,1,.64,1.06,1s-.09.87-.11,1.34q-.39,5-.76,12.2t-.22,13a1,1,0,0,1-.74.84,6.1,6.1,0,0,1-1.73.37,14.3,14.3,0,0,1-1.95,0,8.54,8.54,0,0,1-1.35-.16c-.52-.14-.81-.34-.88-.6a6.25,6.25,0,0,1-.21-1.58,13.53,13.53,0,0,0-.18-1.41c-.07-.42-.17-.64-.29-.65a1.19,1.19,0,0,0-.62.27,6.39,6.39,0,0,1-1.32.72,6.15,6.15,0,0,1-2.34.37,5.09,5.09,0,0,1-2.86-.87,8.12,8.12,0,0,1-2.3-2.3,10.22,10.22,0,0,1-1.45-3.2,25.88,25.88,0,0,1-.7-6.11c0-2.35.05-4.63.23-6.84s.36-4,.54-5.29a2,2,0,0,1,1.43-1.36,7.63,7.63,0,0,1,2.74-.4,7.21,7.21,0,0,1,2.67.51c.76.31,1.16.77,1.18,1.35,0,1.13-.06,2.72-.18,4.78s-.2,3.85-.26,5.72a30,30,0,0,0,.09,4.27c.21,1.5.44,2.31.68,2.42s.5-.24.76-1.07a27.57,27.57,0,0,0,.74-3.29c.23-1.35.45-2.78.65-4.27s.37-2.82.51-4,.23-2,.28-2.47a.51.51,0,0,1,0-.25A17.37,17.37,0,0,1,132.93,14.52Z" />
            <path class="cls-1" d="M150.09,16.13a5.56,5.56,0,0,1,2.39-1.56,7.21,7.21,0,0,1,2.5-.44,5.16,5.16,0,0,1,2.86.86,8.12,8.12,0,0,1,2.3,2.3,10.22,10.22,0,0,1,1.45,3.2,20,20,0,0,1,.59,4.57c0,1.71,0,3.47-.09,5.26s-.21,3.47-.33,5c-.12,1.29-.21,2.42-.28,3.38-.07.61-.5,1.06-1.3,1.35a7.35,7.35,0,0,1-2.74.41,8.09,8.09,0,0,1-2.73-.51c-.78-.32-1.19-.77-1.21-1.36,0-1.12.06-2.73.18-4.81s.2-3.82.26-5.68a29.94,29.94,0,0,0-.09-4.27c-.16-1.17-.37-1.83-.63-1.95s-.55.14-.86.8a18.27,18.27,0,0,0-1,2.73q-.88,3.27-1.6,7.14c-.48,2.57-.8,4.58-1,6,0,.86-.28,1.4-.7,1.6a5.57,5.57,0,0,1-2.18.3h-.21a7.47,7.47,0,0,1-2.3-.22,1.64,1.64,0,0,1-1.32-1.05,32.33,32.33,0,0,1-.62-5.43q-.19-3.7-.15-8.07c0-2.91.14-5.58.35-8a23.37,23.37,0,0,1,.91-5.36c.14-.29.57-.46,1.28-.53a12.26,12.26,0,0,1,2.41,0,8.76,8.76,0,0,1,2.3.53c.65.26,1,.58,1,1s0,.47,0,.7c-.05.52-.1,1.2-.14,2,0,.4,0,.58.15.53A1.81,1.81,0,0,0,150.09,16.13Z" />
            <path class="cls-1" d="M185.14,5a1,1,0,0,1,.69,1,3.18,3.18,0,0,1-.29,1.65,1.36,1.36,0,0,1-1.17.88q-3.1.08-9.46,0h-.42a2.37,2.37,0,0,0-1,.07c-.28.09-.45.37-.49.84q-.57,7.25-1.06,16.46t-.42,15.92c0,.35-.35.65-1,.9a7.34,7.34,0,0,1-2.23.44,6.11,6.11,0,0,1-2.36-.32,1.86,1.86,0,0,1-1.3-1.44,64.12,64.12,0,0,1-.51-8.21q-.07-5.57.13-12t.67-11.45c0-.68-.09-1.09-.41-1.23a3.82,3.82,0,0,0-1.46-.21l-7.59-.14a.79.79,0,0,1-.67-.44,2.46,2.46,0,0,1-.35-1.07,2.09,2.09,0,0,1,.26-1.16,1.5,1.5,0,0,1,1.11-.67q2.88-.32,9.35-.38c.26,0,.42-.06.48-.16a1.51,1.51,0,0,0,.12-.48c0-.14.06-.31.1-.52q.28-.64,1.62-.72a9.41,9.41,0,0,1,2.87.28,6.82,6.82,0,0,1,2.44,1l.39.35a2,2,0,0,0,.15.15l.15.05a1.12,1.12,0,0,0,.29,0h.53A100.57,100.57,0,0,1,185.14,5Z" />
        </g>
    </g>
</svg>